# xmcd
#
# Track frame offsets:
#	150
#	12618
#	30140
#	54301
#	64990
#	78274
#	93528
#	113657
#	129190
#	146960
#	160004
#	183751
#	225288
#	239676
#	251840
#	268546
#	284631
#	302631
#
# Disc length: 4195 seconds
# Revision: 1
# Processed by: cddbd v1.5.2PL0 Copyright (c) Steve Scherf et al.
# Submitted via: dBpowerAMP V12.0
#
DISCID=ef106112
DTITLE=Various Artist - Heavy Soul
DYEAR=1969
DGENRE=Soul
TTITLE0=Wilson Pickett - Born To Be Wild
TTITLE1=Leon Russell and The Shelter  People - Alcatraz
TTITLE2=Allman Brothers - Whipping Post
TTITLE3=James Luther Dickinson - Dickinson Dixie Fried
TTITLE4=Jackie De Shannon - Anna Karina
TTITLE5=J Giles Band - Cry One More Time
TTITLE6=Link Wray - Juke Box Mama
TTITLE7=Jim Ford - Mixed Green
TTITLE8=Little Feat - Dixie Chicken
TTITLE9=Dr. John - Right Place Wrong Time
TTITLE10=Johnny Jenkins - Walk On Gilded Splinters
TTITLE11=The Isley Brothers - Ohio
TTITLE12=Travis Wammack - Easy Evil
TTITLE13=Tony Joe White - I've Got A Thing About You Bab
TTITLE14=Joe South - Walk A Mile In My Shoes
TTITLE15=Lonnie Mack - I Found A Love
TTITLE16=Allen Toussaint - On Your Way Down
TTITLE17=Danny O'Keefe - Good Time Charlie's Got The Blues
EXTD=
EXTT0=
EXTT1=
EXTT2=
EXTT3=
EXTT4=
EXTT5=
EXTT6=
EXTT7=
EXTT8=
EXTT9=
EXTT10=
EXTT11=
EXTT12=
EXTT13=
EXTT14=
EXTT15=
EXTT16=
EXTT17=
PLAYORDER=
